<svg width="5417" height="2777" viewBox="0 0 5417 2777" fill="none" xmlns="http://www.w3.org/2000/svg">
<path d="M4478.14 24.0796V684.271L4882.62 50.4049L4898.81 24.0796H5416.73L4891.79 903.671C5010.48 1278.12 5162.84 1644.04 5289.57 2016.46C5296.18 2035.87 5307.44 2060.38 5312.19 2076.23H4796.3L4569.61 1455.8C4561.6 1445.97 4561.66 1446.29 4553.85 1455.94C4546.07 1465.54 4478.14 1571.87 4478.14 1579.1V2076.23H4000.9V24.0796H4478.14Z" fill="#F8F68F"/>
<path d="M477.244 24.0796V759.83C477.244 768.281 491.333 824.93 495.382 837.137C534.9 956.197 726.923 967.081 780.904 856.679C785.071 848.147 803.364 796.304 803.364 791.645V24.0796H1288.56C1288.56 273.693 1288.89 544.361 1288.89 799.935C1288.89 1011.76 1198.52 1199.31 1012.6 1311.09C974.045 1334.28 926.487 1356.41 882.898 1368.32V2076.23H405.654V1368.32C242.102 1324.03 104.809 1199.72 43.8902 1042.06C41.5164 1035.91 38.878 1028.54 36.0852 1020.22C11.9206 948.112 0 872.458 0 796.4V24.0796H477.244Z" fill="#F8F68F"/>
<path d="M1696.56 1497.5C1631.83 1564.15 1744.22 1608.16 1801.17 1613.87C2070.59 1640.87 2387 1331.47 2446.28 1082.95C2473.4 969.283 2500.69 730.709 2340.8 708.675C2201.43 689.464 2163.5 725.653 2022.25 645.75C1990.71 627.914 1767.98 446.649 1798.84 598.803C1831.22 758.504 2159.3 819.768 2209.61 935.234C2286.28 1111.23 2076.31 1301.91 1937.56 1376.89C1877.37 1409.41 1738.54 1454.27 1696.56 1497.5ZM2189.4 363.381C2321.66 490.51 2548.58 319.976 2710.07 458.614C2853.78 581.988 2820.98 805.231 2777.71 967.321C2750.43 1069.52 2682.96 1166.48 2641.57 1265.2C2517.73 1560.62 2555.63 1905.67 2215.73 2052.42C1771.99 2244.02 1110.65 2016.42 1161.47 1451.16C1168.62 1371.67 1200.94 1274.19 1257.63 1216.4C1370.61 1101.24 1529.89 1137.54 1673.09 1104.48C1732.35 1090.8 1799.63 1067.82 1844.38 1025C1913.73 958.634 1845.4 887.999 1779.26 853.333C1637.65 779.104 1450.88 703.605 1417.71 527.103C1358.74 213.315 1572.13 -1.50607 1880.58 0.00789811C2104.07 1.13235 2065.25 244.065 2189.4 363.381Z" fill="#F8F68F"/>
<path d="M983.989 2761.9C955.537 2761.9 931.139 2757.99 910.796 2750.15C890.591 2742.45 874.509 2731.94 862.55 2718.61C850.592 2705.27 842.826 2690.29 839.252 2673.66L920.486 2662.73C922.961 2669.05 926.878 2674.96 932.239 2680.46C937.599 2685.96 944.678 2690.36 953.475 2693.66C962.409 2697.09 973.268 2698.81 986.051 2698.81C1005.16 2698.81 1020.9 2694.14 1033.27 2684.79C1045.77 2675.58 1052.03 2660.12 1052.03 2638.4V2580.47H1048.32C1044.47 2589.26 1038.7 2597.58 1031 2605.41C1023.3 2613.25 1013.4 2619.64 1001.31 2624.59C989.213 2629.54 974.78 2632.01 958.011 2632.01C934.232 2632.01 912.583 2626.51 893.065 2615.52C873.684 2604.38 858.221 2587.41 846.675 2564.59C835.266 2541.64 829.562 2512.63 829.562 2477.58C829.562 2441.71 835.404 2411.74 847.087 2387.69C858.77 2363.64 874.303 2345.63 893.683 2333.67C913.201 2321.71 934.575 2315.73 957.805 2315.73C975.536 2315.73 990.381 2318.76 1002.34 2324.8C1014.3 2330.72 1023.92 2338.14 1031.2 2347.07C1038.63 2355.87 1044.33 2364.53 1048.32 2373.05H1051.62V2319.86H1138.83V2639.64C1138.83 2666.58 1132.23 2689.12 1119.04 2707.27C1105.84 2725.41 1087.56 2739.02 1064.19 2748.09C1040.96 2757.3 1014.23 2761.9 983.989 2761.9ZM985.845 2566.03C1000 2566.03 1011.96 2562.53 1021.72 2555.52C1031.62 2548.37 1039.18 2538.2 1044.4 2525C1049.76 2511.67 1052.44 2495.73 1052.44 2477.17C1052.44 2458.61 1049.83 2442.53 1044.61 2428.92C1039.38 2415.18 1031.82 2404.53 1021.93 2396.97C1012.03 2389.41 1000 2385.63 985.845 2385.63C971.412 2385.63 959.248 2389.54 949.351 2397.38C939.455 2405.08 931.964 2415.8 926.878 2429.54C921.792 2443.29 919.249 2459.16 919.249 2477.17C919.249 2495.45 921.792 2511.26 926.878 2524.59C932.101 2537.79 939.592 2548.03 949.351 2555.31C959.248 2562.46 971.412 2566.03 985.845 2566.03ZM1351.81 2642.73C1319.79 2642.73 1292.09 2635.93 1268.72 2622.32C1245.49 2608.57 1227.55 2589.47 1214.91 2565C1202.26 2540.4 1195.94 2511.88 1195.94 2479.44C1195.94 2446.72 1202.26 2418.13 1214.91 2393.67C1227.55 2369.06 1245.49 2349.96 1268.72 2336.35C1292.09 2322.61 1319.79 2315.73 1351.81 2315.73C1383.84 2315.73 1411.47 2322.61 1434.7 2336.35C1458.06 2349.96 1476.07 2369.06 1488.71 2393.67C1501.36 2418.13 1507.68 2446.72 1507.68 2479.44C1507.68 2511.88 1501.36 2540.4 1488.71 2565C1476.07 2589.47 1458.06 2608.57 1434.7 2622.32C1411.47 2635.93 1383.84 2642.73 1351.81 2642.73ZM1352.22 2574.69C1366.79 2574.69 1378.96 2570.57 1388.72 2562.32C1398.48 2553.94 1405.83 2542.53 1410.78 2528.1C1415.86 2513.66 1418.41 2497.24 1418.41 2478.82C1418.41 2460.4 1415.86 2443.98 1410.78 2429.54C1405.83 2415.11 1398.48 2403.7 1388.72 2395.32C1378.96 2386.93 1366.79 2382.74 1352.22 2382.74C1337.52 2382.74 1325.15 2386.93 1315.11 2395.32C1305.22 2403.7 1297.72 2415.11 1292.64 2429.54C1287.69 2443.98 1285.22 2460.4 1285.22 2478.82C1285.22 2497.24 1287.69 2513.66 1292.64 2528.1C1297.72 2542.53 1305.22 2553.94 1315.11 2562.32C1325.15 2570.57 1337.52 2574.69 1352.22 2574.69ZM1707.88 2642.73C1675.85 2642.73 1648.16 2635.93 1624.79 2622.32C1601.56 2608.57 1583.62 2589.47 1570.98 2565C1558.33 2540.4 1552.01 2511.88 1552.01 2479.44C1552.01 2446.72 1558.33 2418.13 1570.98 2393.67C1583.62 2369.06 1601.56 2349.96 1624.79 2336.35C1648.16 2322.61 1675.85 2315.73 1707.88 2315.73C1739.91 2315.73 1767.54 2322.61 1790.76 2336.35C1814.13 2349.96 1832.14 2369.06 1844.78 2393.67C1857.43 2418.13 1863.75 2446.72 1863.75 2479.44C1863.75 2511.88 1857.43 2540.4 1844.78 2565C1832.14 2589.47 1814.13 2608.57 1790.76 2622.32C1767.54 2635.93 1739.91 2642.73 1707.88 2642.73ZM1708.29 2574.69C1722.86 2574.69 1735.03 2570.57 1744.79 2562.32C1754.55 2553.94 1761.9 2542.53 1766.85 2528.1C1771.93 2513.66 1774.48 2497.24 1774.48 2478.82C1774.48 2460.4 1771.93 2443.98 1766.85 2429.54C1761.9 2415.11 1754.55 2403.7 1744.79 2395.32C1735.03 2386.93 1722.86 2382.74 1708.29 2382.74C1693.59 2382.74 1681.22 2386.93 1671.18 2395.32C1661.29 2403.7 1653.79 2415.11 1648.71 2429.54C1643.76 2443.98 1641.29 2460.4 1641.29 2478.82C1641.29 2497.24 1643.76 2513.66 1648.71 2528.1C1653.79 2542.53 1661.29 2553.94 1671.18 2562.32C1681.22 2570.57 1693.59 2574.69 1708.29 2574.69ZM2037.56 2641.7C2013.51 2641.7 1991.72 2635.52 1972.2 2623.14C1952.82 2610.64 1937.43 2592.29 1926.02 2568.1C1914.75 2543.77 1909.11 2513.94 1909.11 2478.61C1909.11 2442.33 1914.95 2412.16 1926.64 2388.1C1938.32 2363.91 1953.85 2345.84 1973.23 2333.88C1992.75 2321.78 2014.12 2315.73 2037.35 2315.73C2055.09 2315.73 2069.86 2318.76 2081.68 2324.8C2093.64 2330.72 2103.26 2338.14 2110.55 2347.07C2117.97 2355.87 2123.61 2364.53 2127.45 2373.05H2130.13V2214.29H2217.76V2636.55H2131.17V2585.83H2127.45C2123.33 2594.62 2117.49 2603.35 2109.93 2612.01C2102.51 2620.53 2092.82 2627.61 2080.86 2633.25C2069.04 2638.88 2054.6 2641.7 2037.56 2641.7ZM2065.39 2571.81C2079.55 2571.81 2091.51 2567.96 2101.27 2560.26C2111.17 2552.43 2118.73 2541.5 2123.95 2527.48C2129.31 2513.46 2131.99 2497.03 2131.99 2478.2C2131.99 2459.37 2129.38 2443.01 2124.16 2429.13C2118.93 2415.25 2111.37 2404.53 2101.48 2396.97C2091.58 2389.41 2079.55 2385.63 2065.39 2385.63C2050.96 2385.63 2038.8 2389.54 2028.9 2397.38C2019 2405.21 2011.51 2416.07 2006.43 2429.96C2001.34 2443.84 1998.8 2459.92 1998.8 2478.2C1998.8 2496.62 2001.34 2512.91 2006.43 2527.07C2011.65 2541.09 2019.14 2552.08 2028.9 2560.05C2038.8 2567.89 2050.96 2571.81 2065.39 2571.81ZM2426 2636.55V2214.29H2513.83V2373.05H2516.51C2520.36 2364.53 2525.93 2355.87 2533.21 2347.07C2540.64 2338.14 2550.26 2330.72 2562.08 2324.8C2574.04 2318.76 2588.88 2315.73 2606.61 2315.73C2629.7 2315.73 2651.01 2321.78 2670.53 2333.88C2690.05 2345.84 2705.65 2363.91 2717.33 2388.1C2729.01 2412.16 2734.86 2442.33 2734.86 2478.61C2734.86 2513.94 2729.15 2543.77 2717.74 2568.1C2706.47 2592.29 2691.08 2610.64 2671.56 2623.14C2652.18 2635.52 2630.46 2641.7 2606.41 2641.7C2589.36 2641.7 2574.86 2638.88 2562.9 2633.25C2551.08 2627.61 2541.39 2620.53 2533.83 2612.01C2526.27 2603.35 2520.5 2594.62 2516.51 2585.83H2512.6V2636.55H2426ZM2511.98 2478.2C2511.98 2497.03 2514.59 2513.46 2519.81 2527.48C2525.03 2541.5 2532.59 2552.43 2542.49 2560.26C2552.39 2567.96 2564.41 2571.81 2578.57 2571.81C2592.87 2571.81 2604.96 2567.89 2614.86 2560.05C2624.76 2552.08 2632.25 2541.09 2637.33 2527.07C2642.56 2512.91 2645.17 2496.62 2645.17 2478.2C2645.17 2459.92 2642.62 2443.84 2637.54 2429.96C2632.45 2416.07 2624.96 2405.21 2615.07 2397.38C2605.17 2389.54 2593 2385.63 2578.57 2385.63C2564.28 2385.63 2552.18 2389.41 2542.28 2396.97C2532.53 2404.53 2525.03 2415.25 2519.81 2429.13C2514.59 2443.01 2511.98 2459.37 2511.98 2478.2ZM2793.46 2636.55V2319.86H2881.29V2636.55H2793.46ZM2837.58 2279.03C2824.53 2279.03 2813.32 2274.7 2803.98 2266.04C2794.77 2257.25 2790.16 2246.73 2790.16 2234.5C2790.16 2222.4 2794.77 2212.03 2803.98 2203.37C2813.32 2194.57 2824.53 2190.17 2837.58 2190.17C2850.64 2190.17 2861.78 2194.57 2870.98 2203.37C2880.33 2212.03 2885 2222.4 2885 2234.5C2885 2246.73 2880.33 2257.25 2870.98 2266.04C2861.78 2274.7 2850.64 2279.03 2837.58 2279.03ZM3120.1 2319.86V2385.83H2929.38V2319.86H3120.1ZM2972.68 2243.98H3060.51V2539.23C3060.51 2547.34 3061.75 2553.66 3064.22 2558.2C3066.7 2562.6 3070.14 2565.69 3074.53 2567.48C3079.07 2569.26 3084.29 2570.16 3090.2 2570.16C3094.33 2570.16 3098.45 2569.81 3102.57 2569.13C3106.7 2568.3 3109.86 2567.68 3112.06 2567.27L3125.87 2632.63C3121.47 2634 3115.29 2635.58 3107.32 2637.37C3099.34 2639.3 3089.65 2640.46 3078.25 2640.88C3057.08 2641.7 3038.52 2638.88 3022.58 2632.42C3006.77 2625.96 2994.47 2615.93 2985.67 2602.32C2976.87 2588.71 2972.54 2571.53 2972.68 2550.78V2243.98ZM3318.24 2642.73C3285.66 2642.73 3257.62 2636.13 3234.12 2622.94C3210.75 2609.61 3192.74 2590.77 3180.1 2566.45C3167.45 2541.98 3161.13 2513.05 3161.13 2479.64C3161.13 2447.07 3167.45 2418.48 3180.1 2393.87C3192.74 2369.27 3210.54 2350.1 3233.5 2336.35C3256.59 2322.61 3283.67 2315.73 3314.73 2315.73C3335.62 2315.73 3355.07 2319.1 3373.08 2325.84C3391.22 2332.43 3407.03 2342.4 3420.5 2355.73C3434.11 2369.06 3444.69 2385.83 3452.25 2406.04C3459.81 2426.11 3463.59 2449.61 3463.59 2476.55V2500.67H3196.18V2446.24H3380.91C3380.91 2433.6 3378.17 2422.4 3372.67 2412.64C3367.17 2402.88 3359.54 2395.25 3349.78 2389.75C3340.16 2384.12 3328.96 2381.3 3316.17 2381.3C3302.84 2381.3 3291.02 2384.39 3280.71 2390.58C3270.54 2396.62 3262.57 2404.8 3256.8 2415.11C3251.02 2425.28 3248.07 2436.62 3247.93 2449.13V2500.88C3247.93 2516.55 3250.82 2530.09 3256.59 2541.5C3262.5 2552.91 3270.82 2561.7 3281.54 2567.89C3292.26 2574.07 3304.97 2577.17 3319.68 2577.17C3329.44 2577.17 3338.37 2575.79 3346.48 2573.04C3354.59 2570.29 3361.53 2566.17 3367.31 2560.67C3373.08 2555.17 3377.48 2548.44 3380.5 2540.47L3461.74 2545.83C3457.61 2565.35 3449.16 2582.39 3436.38 2596.96C3423.73 2611.39 3407.37 2622.66 3387.31 2630.77C3367.38 2638.75 3344.35 2642.73 3318.24 2642.73ZM3784.41 2410.16L3704 2415.11C3702.62 2408.24 3699.67 2402.05 3695.13 2396.55C3690.59 2390.92 3684.62 2386.45 3677.19 2383.15C3669.91 2379.72 3661.18 2378 3651.01 2378C3637.4 2378 3625.92 2380.89 3616.58 2386.66C3607.23 2392.29 3602.56 2399.85 3602.56 2409.34C3602.56 2416.9 3605.58 2423.29 3611.63 2428.51C3617.68 2433.74 3628.05 2437.93 3642.76 2441.09L3700.08 2452.64C3730.87 2458.96 3753.82 2469.13 3768.94 2483.15C3784.06 2497.17 3791.62 2515.59 3791.62 2538.41C3791.62 2559.16 3785.51 2577.37 3773.27 2593.04C3761.18 2608.71 3744.54 2620.95 3723.38 2629.74C3702.35 2638.4 3678.09 2642.73 3650.6 2642.73C3608.67 2642.73 3575.27 2634 3550.39 2616.55C3525.65 2598.95 3511.15 2575.04 3506.89 2544.8L3593.28 2540.26C3595.89 2553.04 3602.21 2562.8 3612.25 2569.54C3622.28 2576.14 3635.13 2579.44 3650.8 2579.44C3666.2 2579.44 3678.57 2576.48 3687.91 2570.57C3697.4 2564.52 3702.21 2556.76 3702.35 2547.27C3702.21 2539.3 3698.84 2532.77 3692.24 2527.68C3685.65 2522.46 3675.47 2518.47 3661.73 2515.73L3606.89 2504.8C3575.96 2498.61 3552.94 2487.89 3537.82 2472.63C3522.83 2457.38 3515.34 2437.93 3515.34 2414.29C3515.34 2393.94 3520.84 2376.42 3531.84 2361.71C3542.97 2347 3558.57 2335.66 3578.64 2327.69C3598.85 2319.72 3622.49 2315.73 3649.57 2315.73C3689.56 2315.73 3721.04 2324.19 3743.99 2341.09C3767.09 2358 3780.56 2381.02 3784.41 2410.16ZM4124.39 2642.73C4092.37 2642.73 4064.67 2635.93 4041.3 2622.32C4018.07 2608.57 4000.14 2589.47 3987.49 2565C3974.85 2540.4 3968.52 2511.88 3968.52 2479.44C3968.52 2446.72 3974.85 2418.13 3987.49 2393.67C4000.14 2369.06 4018.07 2349.96 4041.3 2336.35C4064.67 2322.61 4092.37 2315.73 4124.39 2315.73C4156.42 2315.73 4184.05 2322.61 4207.28 2336.35C4230.64 2349.96 4248.65 2369.06 4261.3 2393.67C4273.94 2418.13 4280.26 2446.72 4280.26 2479.44C4280.26 2511.88 4273.94 2540.4 4261.3 2565C4248.65 2589.47 4230.64 2608.57 4207.28 2622.32C4184.05 2635.93 4156.42 2642.73 4124.39 2642.73ZM4124.81 2574.69C4139.38 2574.69 4151.54 2570.57 4161.3 2562.32C4171.06 2553.94 4178.41 2542.53 4183.36 2528.1C4188.45 2513.66 4190.99 2497.24 4190.99 2478.82C4190.99 2460.4 4188.45 2443.98 4183.36 2429.54C4178.41 2415.11 4171.06 2403.7 4161.3 2395.32C4151.54 2386.93 4139.38 2382.74 4124.81 2382.74C4110.1 2382.74 4097.73 2386.93 4087.69 2395.32C4077.8 2403.7 4070.31 2415.11 4065.22 2429.54C4060.27 2443.98 4057.8 2460.4 4057.8 2478.82C4057.8 2497.24 4060.27 2513.66 4065.22 2528.1C4070.31 2542.53 4077.8 2553.94 4087.69 2562.32C4097.73 2570.57 4110.1 2574.69 4124.81 2574.69ZM4425.21 2453.46V2636.55H4337.38V2319.86H4421.08V2375.73H4424.8C4431.81 2357.31 4443.56 2342.74 4460.05 2332.02C4476.55 2321.16 4496.55 2315.73 4520.05 2315.73C4542.04 2315.73 4561.22 2320.54 4577.57 2330.17C4593.93 2339.79 4606.64 2353.53 4615.72 2371.4C4624.79 2389.13 4629.32 2410.3 4629.32 2434.9V2636.55H4541.49V2450.57C4541.63 2431.19 4536.68 2416.07 4526.65 2405.21C4516.61 2394.22 4502.8 2388.72 4485.21 2388.72C4473.38 2388.72 4462.94 2391.26 4453.87 2396.35C4444.93 2401.43 4437.92 2408.86 4432.84 2418.62C4427.89 2428.24 4425.35 2439.85 4425.21 2453.46ZM4786.38 2214.29V2636.55H4698.55V2214.29H4786.38ZM4910.96 2755.31C4899.83 2755.31 4889.38 2754.41 4879.62 2752.62C4870 2750.98 4862.03 2748.84 4855.71 2746.23L4875.5 2680.67C4885.81 2683.83 4895.09 2685.55 4903.34 2685.82C4911.72 2686.1 4918.94 2684.17 4924.98 2680.05C4931.17 2675.93 4936.19 2668.92 4940.04 2659.02L4945.19 2645.62L4831.59 2319.86H4923.95L4989.52 2552.43H4992.82L5059 2319.86H5151.99L5028.9 2670.77C5022.99 2687.82 5014.95 2702.66 5004.78 2715.31C4994.74 2728.09 4982.03 2737.92 4966.63 2744.79C4951.24 2751.8 4932.68 2755.31 4910.96 2755.31Z" fill="#F8F68F"/>
<path d="M3348.66 24.0776V1614.89H3841.82V2076.23H2871.42V24.0776H3348.66Z" fill="#F8F68F"/>
</svg>
