<svg width="5417" height="2120" viewBox="0 0 5417 2120" fill="none" xmlns="http://www.w3.org/2000/svg">
<path d="M4478.14 24.0796V684.271L4882.62 50.4049L4898.81 24.0796H5416.73L4891.79 903.671C5010.48 1278.12 5162.84 1644.04 5289.57 2016.46C5296.18 2035.87 5307.44 2060.38 5312.19 2076.23H4796.3L4569.61 1455.8C4561.6 1445.97 4561.66 1446.29 4553.85 1455.94C4546.07 1465.54 4478.14 1571.87 4478.14 1579.1V2076.23H4000.9V24.0796H4478.14Z" fill="black"/>
<path d="M477.244 24.0796V759.829C477.244 768.281 491.333 824.93 495.382 837.137C534.9 956.197 726.923 967.081 780.904 856.679C785.071 848.147 803.364 796.304 803.364 791.645V24.0796H1288.56C1288.56 273.693 1288.89 544.361 1288.89 799.935C1288.89 1011.76 1198.52 1199.31 1012.6 1311.09C974.045 1334.28 926.487 1356.41 882.898 1368.32V2076.23H405.654V1368.32C242.102 1324.03 104.809 1199.72 43.8902 1042.06C41.5164 1035.91 38.878 1028.54 36.0852 1020.22C11.9206 948.112 0 872.458 0 796.4V24.0796H477.244Z" fill="black"/>
<path d="M1696.56 1497.5C1631.83 1564.15 1744.22 1608.16 1801.17 1613.87C2070.59 1640.87 2387 1331.47 2446.28 1082.95C2473.4 969.283 2500.69 730.709 2340.8 708.676C2201.43 689.464 2163.5 725.652 2022.25 645.75C1990.71 627.914 1767.98 446.649 1798.84 598.803C1831.22 758.504 2159.3 819.768 2209.61 935.234C2286.28 1111.23 2076.31 1301.91 1937.56 1376.89C1877.37 1409.41 1738.54 1454.27 1696.56 1497.5ZM2189.4 363.381C2321.66 490.51 2548.58 319.976 2710.07 458.614C2853.78 581.988 2820.98 805.231 2777.71 967.321C2750.43 1069.52 2682.96 1166.48 2641.57 1265.2C2517.73 1560.62 2555.63 1905.67 2215.73 2052.42C1771.99 2244.02 1110.65 2016.42 1161.47 1451.16C1168.62 1371.67 1200.94 1274.19 1257.63 1216.4C1370.61 1101.24 1529.89 1137.54 1673.09 1104.48C1732.35 1090.8 1799.63 1067.82 1844.38 1025C1913.73 958.634 1845.4 887.999 1779.26 853.333C1637.65 779.104 1450.88 703.604 1417.71 527.103C1358.74 213.315 1572.13 -1.5061 1880.58 0.0078125C2104.07 1.13232 2065.25 244.065 2189.4 363.381Z" fill="black"/>
<path d="M3348.66 24.0776V1614.89H3841.82V2076.23H2871.42V24.0776H3348.66Z" fill="black"/>
</svg>
