<svg width="1657" height="2120" viewBox="0 0 1657 2120" fill="none" xmlns="http://www.w3.org/2000/svg">
<path d="M538.564 1497.5C473.831 1564.15 586.217 1608.16 643.174 1613.87C912.586 1640.87 1229 1331.47 1288.28 1082.95C1315.4 969.283 1342.69 730.709 1182.8 708.675C1043.43 689.464 1005.5 725.653 864.25 645.75C832.714 627.914 609.984 446.649 640.837 598.803C673.218 758.504 1001.3 819.768 1051.61 935.234C1128.28 1111.23 918.311 1301.91 779.556 1376.89C719.372 1409.41 580.536 1454.27 538.564 1497.5ZM1031.4 363.381C1163.66 490.51 1390.58 319.976 1552.07 458.614C1695.78 581.988 1662.98 805.231 1619.71 967.321C1592.43 1069.52 1524.96 1166.48 1483.57 1265.2C1359.73 1560.62 1397.63 1905.67 1057.73 2052.42C613.99 2244.02 -47.3479 2016.42 3.47275 1451.16C10.6163 1371.67 42.9387 1274.19 99.6315 1216.4C212.606 1101.24 371.888 1137.54 515.09 1104.48C574.348 1090.8 641.631 1067.82 686.381 1025C755.729 958.634 687.395 887.999 621.258 853.333C479.651 779.104 292.882 703.605 259.708 527.103C200.736 213.315 414.132 -1.50607 722.576 0.00789811C946.07 1.13235 907.251 244.065 1031.4 363.381Z" fill="black"/>
</svg>
